<svg width="215" height="21" viewBox="0 0 215 21" fill="none" xmlns="http://www.w3.org/2000/svg">
<path d="M2.84242 -1.43051e-06H10.0424V3.6H4.28242L4.19242 3.78L8.99242 12.54C9.97242 14.3 10.4624 15.64 10.4624 16.56C10.4624 18.58 9.79242 20.06 8.45242 21H0.502422V17.52H6.71242L6.80242 17.34L1.40242 7.65C0.622422 6.25 0.232422 5.11 0.232422 4.23C0.232422 2.15 1.10242 0.739999 2.84242 -1.43051e-06ZM12.5533 21V-1.43051e-06H23.3233V3.6H16.6633V8.61H22.6033V12.09H16.6633V17.52H23.4433V21H12.5533ZM25.7662 -1.43051e-06H33.7462C35.0062 0.419999 36.0762 1.2 36.9562 2.34C37.8562 3.46 38.3062 4.84 38.3062 6.48C38.3062 9.16 37.2462 11.13 35.1262 12.39L38.1562 21H33.9562L31.4062 13.35H29.8162V21H25.7662V-1.43051e-06ZM29.8162 3.6V9.99H32.3962C32.7362 9.91 33.1062 9.57 33.5062 8.97C33.9262 8.35 34.1362 7.63 34.1362 6.81C34.1362 5.99 33.9562 5.27 33.5962 4.65C33.2562 4.03 32.9162 3.68 32.5762 3.6H29.8162ZM53.0502 -1.43051e-06L48.7902 21H43.1502L38.8902 -1.43051e-06H43.2102L44.8602 9.72L45.8802 16.02H46.0602L47.0802 9.72L48.7302 -1.43051e-06H53.0502ZM54.6529 21V-1.43051e-06H58.7629V21H54.6529ZM67.4748 17.52H72.7548V21H65.1348C63.8148 19.76 62.8148 18.19 62.1348 16.29C61.4548 14.39 61.1148 12.44 61.1148 10.44C61.1148 8.42 61.4948 6.48 62.2548 4.62C63.0148 2.76 64.1448 1.22 65.6448 -1.43051e-06H72.7548V3.6H67.4748C66.9348 4.22 66.4648 5.22 66.0648 6.6C65.6848 7.98 65.4948 9.3 65.4948 10.56C65.4948 11.82 65.6848 13.14 66.0648 14.52C66.4648 15.9 66.9348 16.9 67.4748 17.52ZM74.9556 21V-1.43051e-06H85.7256V3.6H79.0656V8.61H85.0056V12.09H79.0656V17.52H85.8456V21H74.9556ZM121.132 21L120.502 17.67H115.762L115.132 21H111.052L115.102 -1.43051e-06H121.312L125.152 21H121.132ZM118.072 3.9L116.902 10.89L116.242 14.46H119.992L119.302 10.89L118.132 3.9H118.072ZM136.663 21L134.563 8.61H134.443L132.283 21H128.083L125.173 -1.43051e-06H129.193L130.033 6.18L130.663 13.14H130.813L131.923 6.21L132.853 -1.43051e-06H136.243L137.143 6.21L138.283 13.14H138.433L139.033 6.18L139.873 -1.43051e-06H143.893L140.983 21H136.663ZM145.62 21V-1.43051e-06H156.39V3.6H149.73V8.61H155.67V12.09H149.73V17.52H156.51V21H145.62ZM160.46 -1.43051e-06H167.66V3.6H161.9L161.81 3.78L166.61 12.54C167.59 14.3 168.08 15.64 168.08 16.56C168.08 18.58 167.41 20.06 166.07 21H158.12V17.52H164.33L164.42 17.34L159.02 7.65C158.24 6.25 157.85 5.11 157.85 4.23C157.85 2.15 158.72 0.739999 160.46 -1.43051e-06ZM179.511 -1.43051e-06C180.911 1.14 181.951 2.67 182.631 4.59C183.311 6.51 183.651 8.49 183.651 10.53C183.651 12.55 183.321 14.47 182.661 16.29C182.001 18.11 180.951 19.68 179.511 21H173.331C171.891 19.68 170.841 18.11 170.181 16.29C169.521 14.47 169.191 12.55 169.191 10.53C169.191 8.49 169.531 6.51 170.211 4.59C170.891 2.67 171.931 1.14 173.331 -1.43051e-06H179.511ZM175.341 17.52H177.501C178.001 16.94 178.421 16 178.761 14.7C179.121 13.38 179.301 11.99 179.301 10.53C179.301 9.07 179.131 7.7 178.791 6.42C178.451 5.12 178.031 4.18 177.531 3.6H175.341C174.841 4.18 174.411 5.12 174.051 6.42C173.711 7.7 173.541 9.07 173.541 10.53C173.541 11.99 173.711 13.38 174.051 14.7C174.411 16 174.841 16.94 175.341 17.52ZM193.348 11.4H193.228H193.348L194.938 4.83L196.228 -1.43051e-06H199.978L201.328 21H197.398L196.828 9.54H196.678L194.518 18H192.058L189.898 9.54H189.748L189.178 21H185.248L186.598 -1.43051e-06H190.348L191.638 4.83L193.228 11.4H193.348ZM203.745 21V-1.43051e-06H214.515V3.6H207.855V8.61H213.795V12.09H207.855V17.52H214.635V21H203.745Z" fill="#F2FFFF"/>
</svg>
